<svg xmlns="http://www.w3.org/2000/svg" width="32" height="32" viewBox="0 0 1024 1024">
  <rect width="1024" height="1024" rx="180" fill="#F8FAFC"/>
  <path d="M170,128C148,128 130,146 130,168L130,832C130,856 148,876 172,876L852,876C876,876 894,856 894,832L894,216C894,192 876,174 852,174L455,174C445,174 436,170 429,163L382,116C374,108 363,104 352,104L178,104C151,104 130,126 130,153L130,185C139,151 154,128 170,128Z" fill="#1E9BF0"/>
  <path d="M186,230L836,230C852,230 864,242 864,258L864,320L160,320L160,258C160,242 172,230 186,230Z" fill="white"/>
  <path d="M154,292C154,260 180,234 212,234L812,234C844,234 870,260 870,292L870,832C870,864 844,890 812,890L212,890C180,890 154,864 154,832Z" fill="#0F95F4"/>
  <path d="M166,300C166,274 187,254 213,254L811,254C837,254 858,274 858,300L858,342C858,316 837,296 811,296L213,296C187,296 166,316 166,342Z" fill="#42C5FF" opacity="0.36"/>
  <path d="M154,700L870,700L870,832C870,864 844,890 812,890L212,890C180,890 154,864 154,832Z" fill="#097FE1" opacity="0.22"/>
  <path d="M326,476L248,554C236,566 236,585 248,597L326,675C339,688 360,688 373,675C386,662 386,641 373,628L318,573L373,518C386,505 386,484 373,471C360,458 339,458 326,476Z" fill="white"/>
  <path d="M430,398C430,382 443,369 459,369L574,369C644,369 700,425 700,495C700,565 644,621 574,621L512,621L512,742C512,758 499,771 483,771L459,771C443,771 430,758 430,742Z" fill="white"/>
  <path d="M512,445L568,445C596,445 622,467 622,495C622,523 596,545 568,545L512,545Z" fill="#0F95F4"/>
</svg>
